<?xml version="1.0" encoding="UTF-8" standalone="no"?>
<!-- Created with Inkscape (http://www.inkscape.org/) -->

<svg
   xmlns:dc="http://purl.org/dc/elements/1.1/"
   xmlns:cc="http://creativecommons.org/ns#"
   xmlns:rdf="http://www.w3.org/1999/02/22-rdf-syntax-ns#"
   xmlns:svg="http://www.w3.org/2000/svg"
   xmlns="http://www.w3.org/2000/svg"
   xmlns:sodipodi="http://sodipodi.sourceforge.net/DTD/sodipodi-0.dtd"
   xmlns:inkscape="http://www.inkscape.org/namespaces/inkscape"
   width="250mm"
   height="200mm"
   viewBox="0 0 250 200"
   version="1.1"
   id="svg8"
   sodipodi:docname="looking6.svg"
   inkscape:version="0.92.4 (5da689c313, 2019-01-14)">
  <defs
     id="defs2" />
  <sodipodi:namedview
     id="base"
     pagecolor="#ffffff"
     bordercolor="#666666"
     borderopacity="1.0"
     inkscape:pageopacity="0.0"
     inkscape:pageshadow="2"
     inkscape:zoom="1.4"
     inkscape:cx="386.05073"
     inkscape:cy="371.92726"
     inkscape:document-units="mm"
     inkscape:current-layer="layer1"
     showgrid="false"
     inkscape:snap-bbox="false"
     inkscape:bbox-nodes="true"
     inkscape:snap-object-midpoints="true"
     inkscape:snap-global="false"
     inkscape:window-width="2560"
     inkscape:window-height="1495"
     inkscape:window-x="-13"
     inkscape:window-y="-13"
     inkscape:window-maximized="1" />
  <metadata
     id="metadata5">
    <rdf:RDF>
      <cc:Work
         rdf:about="">
        <dc:format>image/svg+xml</dc:format>
        <dc:type
           rdf:resource="http://purl.org/dc/dcmitype/StillImage" />
        <dc:title></dc:title>
      </cc:Work>
    </rdf:RDF>
  </metadata>
  <g
     inkscape:label="Layer 1"
     inkscape:groupmode="layer"
     id="layer1"
     transform="translate(0,-97)">
    <rect
       id="rect3793-8"
       width="13.0538"
       height="15.058322"
       x="127.73553"
       y="235.11353"
       style="fill:none;fill-opacity:1;stroke:#000000;stroke-width:2;stroke-miterlimit:4;stroke-dasharray:none;stroke-opacity:1"
       ry="3.4956818"
       transform="rotate(-0.58950001)" />
    <rect
       id="rect3793"
       width="13.0538"
       height="15.058322"
       x="111.44809"
       y="234.92838"
       style="fill:none;fill-opacity:1;stroke:#000000;stroke-width:2;stroke-miterlimit:4;stroke-dasharray:none;stroke-opacity:1"
       ry="3.4956818"
       transform="rotate(-0.58949996)" />
    <ellipse
       ry="13.418155"
       rx="13.985119"
       cy="182.66228"
       cx="172.43286"
       id="ellipse4559"
       style="opacity:1;fill:#ffffff;fill-opacity:1;stroke:#000000;stroke-width:2;stroke-miterlimit:4;stroke-dasharray:none;stroke-opacity:1" />
    <ellipse
       style="opacity:1;fill:#ffffff;fill-opacity:1;stroke:#000000;stroke-width:2;stroke-miterlimit:4;stroke-dasharray:none;stroke-opacity:1"
       id="path4550"
       cx="83.457146"
       cy="182.66228"
       rx="13.985119"
       ry="13.418155" />
    <path
       style="opacity:1;fill:#ffffff;fill-opacity:1;stroke:#000000;stroke-width:2;stroke-miterlimit:4;stroke-dasharray:none;stroke-opacity:1"
       d="m 87.168757,207.41975 c 31.797403,50.96923 54.327673,44.60202 81.491503,0 m 0,0 c 7.12857,0 4.34318,-13.67039 4.36209,-20.90231 -5e-5,-27.08583 -20.19372,-49.0432 -45.10383,-49.04315 -24.9101,-4e-5 -45.103767,21.95732 -45.103819,49.04315 0.01639,7.23126 -2.774044,20.90231 4.354056,20.90231"
       id="path4554"
       inkscape:connector-curvature="0"
       sodipodi:nodetypes="ccccccc" />
    <ellipse
       style="fill:#ffffff;stroke:#000000;stroke-width:1.50047289;stroke-miterlimit:4;stroke-dasharray:none;stroke-opacity:1"
       id="ellipse4591"
       cx="-40.332249"
       cy="-205.62074"
       rx="16.593094"
       ry="19.067802"
       transform="matrix(-0.95282279,0.30352715,-0.33715825,-0.94144799,0,0)" />
    <ellipse
       transform="matrix(0.95282279,0.30352715,0.33715825,-0.94144799,0,0)"
       ry="19.067802"
       rx="16.593094"
       cy="-128.48813"
       cx="201.39996"
       id="ellipse4534"
       style="fill:#ffffff;stroke:#000000;stroke-width:1.50047289;stroke-miterlimit:4;stroke-dasharray:none;stroke-opacity:1" />
    <ellipse
       style="opacity:1;fill:#ffffff;fill-opacity:1;stroke:#000000;stroke-width:2;stroke-miterlimit:4;stroke-dasharray:none;stroke-opacity:1"
       id="path4561"
       cx="63.462212"
       cy="209.57739"
       rx="7.5595236"
       ry="10.961308" />
    <ellipse
       ry="10.961308"
       rx="7.5595236"
       cy="209.57739"
       cx="79.4506"
       id="ellipse4563"
       style="opacity:1;fill:#ffffff;fill-opacity:1;stroke:#000000;stroke-width:2;stroke-miterlimit:4;stroke-dasharray:none;stroke-opacity:1" />
    <ellipse
       style="opacity:1;fill:#ffffff;fill-opacity:1;stroke:#000000;stroke-width:2;stroke-miterlimit:4;stroke-dasharray:none;stroke-opacity:1"
       id="ellipse4565"
       cx="47.473816"
       cy="209.57739"
       rx="7.5595236"
       ry="10.961308" />
    <ellipse
       ry="10.961308"
       rx="7.5595236"
       cy="209.57739"
       cx="191.823"
       id="ellipse4567"
       style="opacity:1;fill:#ffffff;fill-opacity:1;stroke:#000000;stroke-width:2;stroke-miterlimit:4;stroke-dasharray:none;stroke-opacity:1" />
    <ellipse
       style="opacity:1;fill:#ffffff;fill-opacity:1;stroke:#000000;stroke-width:2;stroke-miterlimit:4;stroke-dasharray:none;stroke-opacity:1"
       id="ellipse4569"
       cx="207.8114"
       cy="209.57739"
       rx="7.5595236"
       ry="10.961308" />
    <ellipse
       ry="10.961308"
       rx="7.5595236"
       cy="209.57739"
       cx="175.83458"
       id="ellipse4571"
       style="opacity:1;fill:#ffffff;fill-opacity:1;stroke:#000000;stroke-width:2;stroke-miterlimit:4;stroke-dasharray:none;stroke-opacity:1" />
    <path
       style="fill:none;stroke:#000000;stroke-width:2;stroke-linecap:butt;stroke-linejoin:miter;stroke-miterlimit:4;stroke-dasharray:none;stroke-opacity:1"
       d="M 89.594844,168.89512 C 70.667058,155.98583 70.667058,155.98583 70.667058,155.98583"
       id="path4593"
       inkscape:connector-curvature="0" />
    <path
       style="fill:none;stroke:#000000;stroke-width:2;stroke-linecap:butt;stroke-linejoin:miter;stroke-miterlimit:4;stroke-dasharray:none;stroke-opacity:1"
       d="M 103.1875,157.90476 C 77.107142,135.22619 77.107142,135.22619 77.107142,135.22619"
       id="path4595"
       inkscape:connector-curvature="0" />
    <path
       style="fill:none;stroke:#000000;stroke-width:2;stroke-linecap:butt;stroke-linejoin:miter;stroke-miterlimit:4;stroke-dasharray:none;stroke-opacity:1"
       d="M 108.10119,147.6994 C 97.517856,134.47024 97.517856,134.09226 97.517856,134.09226"
       id="path4597"
       inkscape:connector-curvature="0" />
    <path
       style="fill:none;stroke:#000000;stroke-width:1;stroke-linecap:butt;stroke-linejoin:miter;stroke-miterlimit:4;stroke-dasharray:none;stroke-opacity:1"
       d="m 121.70833,143.91964 c -6.04762,-22.30059 -6.04762,-22.30059 -6.04762,-22.30059"
       id="path4599"
       inkscape:connector-curvature="0" />
    <path
       style="fill:none;stroke:#000000;stroke-width:1.5;stroke-linecap:butt;stroke-linejoin:miter;stroke-miterlimit:4;stroke-dasharray:none;stroke-opacity:1"
       d="m 139.47321,149.96726 c 9.07143,-29.86012 9.07143,-29.86012 9.07143,-29.86012"
       id="path4603"
       inkscape:connector-curvature="0" />
    <path
       style="fill:none;stroke:#000000;stroke-width:1;stroke-linecap:butt;stroke-linejoin:miter;stroke-miterlimit:4;stroke-dasharray:none;stroke-opacity:1"
       d="m 154.21428,154.88095 c 15.11905,-18.52083 15.11905,-18.52083 15.11905,-18.52083"
       id="path4605"
       inkscape:connector-curvature="0" />
    <path
       style="fill:none;stroke:#000000;stroke-width:2;stroke-linecap:butt;stroke-linejoin:miter;stroke-miterlimit:4;stroke-dasharray:none;stroke-opacity:1"
       d="m 164.79762,163.5744 c 22.30059,-13.98511 22.30059,-13.98511 22.30059,-13.98511"
       id="path4607"
       inkscape:connector-curvature="0" />
    <path
       style="fill:none;stroke:#000000;stroke-width:1.5;stroke-linecap:butt;stroke-linejoin:miter;stroke-miterlimit:4;stroke-dasharray:none;stroke-opacity:1"
       d="m 148.16666,149.58929 c 6.80358,-12.09524 6.80358,-12.09524 6.80358,-12.09524"
       id="path4609"
       inkscape:connector-curvature="0" />
    <path
       style="fill:none;stroke:#000000;stroke-width:0.26458332px;stroke-linecap:butt;stroke-linejoin:miter;stroke-opacity:1"
       d="m 108.10119,147.6994 v 0 0"
       id="path4611"
       inkscape:connector-curvature="0" />
    <path
       style="fill:none;stroke:#000000;stroke-width:1;stroke-linecap:butt;stroke-linejoin:miter;stroke-miterlimit:4;stroke-dasharray:none;stroke-opacity:1"
       d="M 103.56547,152.6131 C 89.580356,134.47024 89.580356,134.47024 89.580356,134.47024"
       id="path4615"
       inkscape:connector-curvature="0" />
    <path
       style="fill:none;stroke:#000000;stroke-width:1.5;stroke-linecap:butt;stroke-linejoin:miter;stroke-miterlimit:4;stroke-dasharray:none;stroke-opacity:1"
       d="M 114.90476,144.6756 C 104.6994,125.39881 104.6994,125.39881 104.6994,125.39881"
       id="path4619"
       inkscape:connector-curvature="0" />
    <path
       style="fill:none;stroke:#000000;stroke-width:1;stroke-linecap:butt;stroke-linejoin:miter;stroke-miterlimit:4;stroke-dasharray:none;stroke-opacity:1"
       d="m 131.53571,143.16369 c 3.40179,-10.96131 3.40179,-10.96131 3.40179,-10.96131"
       id="path4621"
       inkscape:connector-curvature="0" />
    <path
       style="fill:none;stroke:#000000;stroke-width:2;stroke-linecap:butt;stroke-linejoin:miter;stroke-miterlimit:4;stroke-dasharray:none;stroke-opacity:1"
       d="m 152.70238,149.96726 c 4.15774,-8.31547 4.15774,-8.31547 4.15774,-8.31547"
       id="path4623"
       inkscape:connector-curvature="0" />
    <path
       style="fill:none;stroke:#000000;stroke-width:1;stroke-linecap:butt;stroke-linejoin:miter;stroke-miterlimit:4;stroke-dasharray:none;stroke-opacity:1"
       d="m 161.01786,159.79464 c 8.31547,-12.47321 8.31547,-12.47321 8.31547,-12.47321"
       id="path4627"
       inkscape:connector-curvature="0" />
    <path
       style="fill:none;stroke:#000000;stroke-width:2;stroke-linecap:butt;stroke-linejoin:miter;stroke-miterlimit:4;stroke-dasharray:none;stroke-opacity:1"
       d="m 126.24405,142.02976 c -5.29167,-15.49702 -5.29167,-15.49702 -5.29167,-15.49702"
       id="path4629"
       inkscape:connector-curvature="0" />
    <path
       style="fill:none;stroke:#000000;stroke-width:1.2;stroke-linecap:butt;stroke-linejoin:miter;stroke-miterlimit:4;stroke-dasharray:none;stroke-opacity:1"
       d="m 135.31547,143.91964 c 4.53572,-24.19047 4.53572,-24.19047 4.53572,-24.19047"
       id="path4631"
       inkscape:connector-curvature="0" />
    <path
       style="fill:none;stroke:#000000;stroke-width:1;stroke-linecap:butt;stroke-linejoin:miter;stroke-miterlimit:4;stroke-dasharray:none;stroke-opacity:1"
       d="m 90.714284,162.0625 c -8.693452,-4.15774 -8.693452,-4.15774 -8.693452,-4.15774"
       id="path4635"
       inkscape:connector-curvature="0" />
    <path
       style="fill:none;stroke:#000000;stroke-width:1.4;stroke-linecap:butt;stroke-linejoin:miter;stroke-miterlimit:4;stroke-dasharray:none;stroke-opacity:1"
       d="M 96.761905,159.03869 C 76.35119,144.29762 76.35119,144.29762 76.35119,144.29762"
       id="path4637"
       inkscape:connector-curvature="0" />
    <path
       inkscape:connector-curvature="0"
       style="opacity:1;fill:#000000;fill-opacity:1;stroke:#000000;stroke-width:0.21254577;stroke-opacity:1"
       d="m 144.302,185.01294 a 8.7532874,7.3965541 84.900566 0 0 -5.92445,4.78403 19.104658,16.550646 59.003219 0 0 0.3593,0.87535 19.104658,16.550646 59.003219 0 0 10.44491,10.47725 8.7532874,7.3965541 84.900566 0 0 3.26597,-8.07527 8.7532874,7.3965541 84.900566 0 0 -8.14573,-8.06136 z"
       id="ellipse4639-3-4" />
    <path
       inkscape:connector-curvature="0"
       style="opacity:1;fill:#000000;fill-opacity:1;stroke:#000000;stroke-width:0.21254577;stroke-opacity:1"
       d="m 99.305535,185.24755 a 8.7532874,7.3965541 71.820219 0 0 -4.688028,6.00071 19.104658,16.550646 45.922872 0 0 0.5481,0.77132 19.104658,16.550646 45.922872 0 0 12.545073,7.84154 8.7532874,7.3965541 71.820219 0 0 1.35366,-8.60489 8.7532874,7.3965541 71.820219 0 0 -9.758805,-6.00868 z"
       id="ellipse4639-3" />
    <ellipse
       style="fill:#ffffff;fill-opacity:1;stroke:#000000;stroke-width:1.5;stroke-miterlimit:4;stroke-dasharray:none;stroke-opacity:1"
       id="path4536"
       cx="127.75595"
       cy="210.82143"
       rx="21.937265"
       ry="30.252743" />
  </g>
</svg>
