<?xml version="1.0" encoding="UTF-8" standalone="no"?>
<!-- Created with Inkscape (http://www.inkscape.org/) -->

<svg
   xmlns:dc="http://purl.org/dc/elements/1.1/"
   xmlns:cc="http://creativecommons.org/ns#"
   xmlns:rdf="http://www.w3.org/1999/02/22-rdf-syntax-ns#"
   xmlns:svg="http://www.w3.org/2000/svg"
   xmlns="http://www.w3.org/2000/svg"
   xmlns:sodipodi="http://sodipodi.sourceforge.net/DTD/sodipodi-0.dtd"
   xmlns:inkscape="http://www.inkscape.org/namespaces/inkscape"
   width="250mm"
   height="200mm"
   viewBox="0 0 250 200"
   version="1.1"
   id="svg8"
   sodipodi:docname="looking8.svg"
   inkscape:version="0.92.4 (5da689c313, 2019-01-14)">
  <defs
     id="defs2" />
  <sodipodi:namedview
     id="base"
     pagecolor="#ffffff"
     bordercolor="#666666"
     borderopacity="1.0"
     inkscape:pageopacity="0.0"
     inkscape:pageshadow="2"
     inkscape:zoom="1.4"
     inkscape:cx="386.05073"
     inkscape:cy="371.92726"
     inkscape:document-units="mm"
     inkscape:current-layer="layer1"
     showgrid="false"
     inkscape:snap-bbox="false"
     inkscape:bbox-nodes="true"
     inkscape:snap-object-midpoints="true"
     inkscape:snap-global="false"
     inkscape:window-width="2560"
     inkscape:window-height="1495"
     inkscape:window-x="-13"
     inkscape:window-y="-13"
     inkscape:window-maximized="1" />
  <metadata
     id="metadata5">
    <rdf:RDF>
      <cc:Work
         rdf:about="">
        <dc:format>image/svg+xml</dc:format>
        <dc:type
           rdf:resource="http://purl.org/dc/dcmitype/StillImage" />
        <dc:title></dc:title>
      </cc:Work>
    </rdf:RDF>
  </metadata>
  <g
     inkscape:label="Layer 1"
     inkscape:groupmode="layer"
     id="layer1"
     transform="translate(0,-97)">
    <ellipse
       ry="13.418155"
       rx="13.985119"
       cy="182.66228"
       cx="172.43286"
       id="ellipse4559"
       style="opacity:1;fill:#ffffff;fill-opacity:1;stroke:#000000;stroke-width:2;stroke-miterlimit:4;stroke-dasharray:none;stroke-opacity:1" />
    <ellipse
       style="opacity:1;fill:#ffffff;fill-opacity:1;stroke:#000000;stroke-width:2;stroke-miterlimit:4;stroke-dasharray:none;stroke-opacity:1"
       id="path4550"
       cx="83.457146"
       cy="182.66228"
       rx="13.985119"
       ry="13.418155" />
    <path
       style="opacity:1;fill:#ffffff;fill-opacity:1;stroke:#000000;stroke-width:2;stroke-miterlimit:4;stroke-dasharray:none;stroke-opacity:1"
       d="m 167.90431,211.95546 c 7.12857,0 5.09913,-18.2061 5.11804,-25.43802 -5e-5,-27.08583 -20.19372,-49.0432 -45.10383,-49.04315 -24.9101,-4e-5 -45.103767,21.95732 -45.103819,49.04315 0.01639,7.23126 -2.585056,26.00499 4.543044,26.00499"
       id="path4554"
       inkscape:connector-curvature="0"
       sodipodi:nodetypes="ccccc" />
    <ellipse
       style="fill:#ffffff;stroke:#000000;stroke-width:1.5004729;stroke-miterlimit:4;stroke-dasharray:none;stroke-opacity:1"
       id="ellipse4591"
       cx="-124.06067"
       cy="-167.93573"
       rx="16.593094"
       ry="19.067802"
       transform="matrix(-0.99370522,-0.11202652,0.07668232,-0.99705558,0,0)" />
    <ellipse
       transform="matrix(0.985697,-0.16852724,-0.1334317,-0.99105801,0,0)"
       ry="19.067802"
       rx="16.593094"
       cy="-203.59155"
       cx="118.99412"
       id="ellipse4534"
       style="fill:#ffffff;stroke:#000000;stroke-width:1.5004729;stroke-miterlimit:4;stroke-dasharray:none;stroke-opacity:1" />
    <path
       style="fill:none;stroke:#000000;stroke-width:2;stroke-linecap:butt;stroke-linejoin:miter;stroke-miterlimit:4;stroke-dasharray:none;stroke-opacity:1"
       d="M 89.594844,168.89512 C 70.667058,155.98583 70.667058,155.98583 70.667058,155.98583"
       id="path4593"
       inkscape:connector-curvature="0" />
    <path
       style="fill:none;stroke:#000000;stroke-width:2;stroke-linecap:butt;stroke-linejoin:miter;stroke-miterlimit:4;stroke-dasharray:none;stroke-opacity:1"
       d="M 103.1875,157.90476 C 77.107142,135.22619 77.107142,135.22619 77.107142,135.22619"
       id="path4595"
       inkscape:connector-curvature="0" />
    <path
       style="fill:none;stroke:#000000;stroke-width:1;stroke-linecap:butt;stroke-linejoin:miter;stroke-miterlimit:4;stroke-dasharray:none;stroke-opacity:1"
       d="m 121.70833,143.91964 c -6.04762,-22.30059 -6.04762,-22.30059 -6.04762,-22.30059"
       id="path4599"
       inkscape:connector-curvature="0" />
    <path
       style="fill:none;stroke:#000000;stroke-width:1.5;stroke-linecap:butt;stroke-linejoin:miter;stroke-miterlimit:4;stroke-dasharray:none;stroke-opacity:1"
       d="m 143.06398,147.32143 c 9.07143,-29.86012 9.07143,-29.86012 9.07143,-29.86012"
       id="path4603"
       inkscape:connector-curvature="0" />
    <path
       style="fill:none;stroke:#000000;stroke-width:1;stroke-linecap:butt;stroke-linejoin:miter;stroke-miterlimit:4;stroke-dasharray:none;stroke-opacity:1"
       d="m 154.21428,154.88095 c 15.11905,-18.52083 15.11905,-18.52083 15.11905,-18.52083"
       id="path4605"
       inkscape:connector-curvature="0" />
    <path
       style="fill:none;stroke:#000000;stroke-width:2;stroke-linecap:butt;stroke-linejoin:miter;stroke-miterlimit:4;stroke-dasharray:none;stroke-opacity:1"
       d="m 164.79762,163.5744 c 22.30059,-13.98511 22.30059,-13.98511 22.30059,-13.98511"
       id="path4607"
       inkscape:connector-curvature="0" />
    <path
       style="fill:none;stroke:#000000;stroke-width:2;stroke-linecap:butt;stroke-linejoin:miter;stroke-miterlimit:4;stroke-dasharray:none;stroke-opacity:1"
       d="m 149.20346,148.44564 c 9.45467,-21.71421 9.45467,-21.71421 9.45467,-21.71421"
       id="path4609"
       inkscape:connector-curvature="0" />
    <path
       style="fill:none;stroke:#000000;stroke-width:0.26458332px;stroke-linecap:butt;stroke-linejoin:miter;stroke-opacity:1"
       d="m 108.10119,147.6994 v 0 0"
       id="path4611"
       inkscape:connector-curvature="0" />
    <path
       style="fill:none;stroke:#000000;stroke-width:1;stroke-linecap:butt;stroke-linejoin:miter;stroke-miterlimit:4;stroke-dasharray:none;stroke-opacity:1"
       d="M 103.56547,152.6131 C 89.580356,134.47024 89.580356,134.47024 89.580356,134.47024"
       id="path4615"
       inkscape:connector-curvature="0" />
    <path
       style="fill:none;stroke:#000000;stroke-width:1.5;stroke-linecap:butt;stroke-linejoin:miter;stroke-miterlimit:4;stroke-dasharray:none;stroke-opacity:1"
       d="M 114.90476,144.6756 C 104.6994,125.39881 104.6994,125.39881 104.6994,125.39881"
       id="path4619"
       inkscape:connector-curvature="0" />
    <path
       style="fill:none;stroke:#000000;stroke-width:1.21015918;stroke-linecap:butt;stroke-linejoin:miter;stroke-miterlimit:4;stroke-dasharray:none;stroke-opacity:1"
       d="m 130.94102,143.39615 c 1.41615,-17.28486 1.41615,-17.28486 1.41615,-17.28486"
       id="path4621"
       inkscape:connector-curvature="0" />
    <path
       style="fill:none;stroke:#000000;stroke-width:2;stroke-linecap:butt;stroke-linejoin:miter;stroke-miterlimit:4;stroke-dasharray:none;stroke-opacity:1"
       d="m 161.01786,159.79464 c 8.31547,-12.47321 8.31547,-12.47321 8.31547,-12.47321"
       id="path4627"
       inkscape:connector-curvature="0" />
    <path
       style="fill:none;stroke:#000000;stroke-width:2;stroke-linecap:butt;stroke-linejoin:miter;stroke-miterlimit:4;stroke-dasharray:none;stroke-opacity:1"
       d="m 124.2555,142.19974 c -2.82647,-32.08996 -2.82647,-32.08996 -2.82647,-32.08996"
       id="path4629"
       inkscape:connector-curvature="0" />
    <path
       style="fill:none;stroke:#000000;stroke-width:1.35422122;stroke-linecap:butt;stroke-linejoin:miter;stroke-miterlimit:4;stroke-dasharray:none;stroke-opacity:1"
       d="m 135.34407,143.92878 c 4.47852,-31.20131 4.47852,-31.20131 4.47852,-31.20131"
       id="path4631"
       inkscape:connector-curvature="0" />
    <path
       style="fill:none;stroke:#000000;stroke-width:1;stroke-linecap:butt;stroke-linejoin:miter;stroke-miterlimit:4;stroke-dasharray:none;stroke-opacity:1"
       d="m 90.714284,162.0625 c -8.693452,-4.15774 -8.693452,-4.15774 -8.693452,-4.15774"
       id="path4635"
       inkscape:connector-curvature="0" />
    <path
       style="fill:none;stroke:#000000;stroke-width:1.4;stroke-linecap:butt;stroke-linejoin:miter;stroke-miterlimit:4;stroke-dasharray:none;stroke-opacity:1"
       d="M 96.761905,159.03869 C 76.35119,144.29762 76.35119,144.29762 76.35119,144.29762"
       id="path4637"
       inkscape:connector-curvature="0" />
    <path
       style="fill:none;stroke:#cccccc;stroke-width:3;stroke-linecap:butt;stroke-linejoin:miter;stroke-opacity:1;stroke-miterlimit:4;stroke-dasharray:none"
       d="m 86.934523,212.14434 c 81.453867,0.56697 81.453867,0.56697 81.453867,0.56697"
       id="path5290"
       inkscape:connector-curvature="0" />
    <ellipse
       ry="10.961308"
       rx="7.5595236"
       cy="210.14436"
       cx="192.80557"
       id="ellipse4567"
       style="opacity:1;fill:#ffffff;fill-opacity:1;stroke:#000000;stroke-width:2;stroke-miterlimit:4;stroke-dasharray:none;stroke-opacity:1" />
    <ellipse
       style="opacity:1;fill:#ffffff;fill-opacity:1;stroke:#000000;stroke-width:2;stroke-miterlimit:4;stroke-dasharray:none;stroke-opacity:1"
       id="ellipse4569"
       cx="208.79398"
       cy="210.14436"
       rx="7.5595236"
       ry="10.961308" />
    <ellipse
       ry="10.961308"
       rx="7.5595236"
       cy="210.14436"
       cx="176.81715"
       id="ellipse4571"
       style="opacity:1;fill:#ffffff;fill-opacity:1;stroke:#000000;stroke-width:2;stroke-miterlimit:4;stroke-dasharray:none;stroke-opacity:1" />
    <ellipse
       style="opacity:1;fill:#ffffff;fill-opacity:1;stroke:#000000;stroke-width:2;stroke-miterlimit:4;stroke-dasharray:none;stroke-opacity:1"
       id="path4561"
       cx="62.819641"
       cy="210.33334"
       rx="7.5595236"
       ry="10.961308" />
    <ellipse
       ry="10.961308"
       rx="7.5595236"
       cy="210.33334"
       cx="78.808029"
       id="ellipse4563"
       style="opacity:1;fill:#ffffff;fill-opacity:1;stroke:#000000;stroke-width:2;stroke-miterlimit:4;stroke-dasharray:none;stroke-opacity:1" />
    <ellipse
       style="opacity:1;fill:#ffffff;fill-opacity:1;stroke:#000000;stroke-width:2;stroke-miterlimit:4;stroke-dasharray:none;stroke-opacity:1"
       id="ellipse4565"
       cx="46.831245"
       cy="210.33334"
       rx="7.5595236"
       ry="10.961308" />
    <path
       style="fill:#000000;fill-opacity:1;stroke:none;stroke-width:2.29535866;stroke-miterlimit:4;stroke-dasharray:none;stroke-opacity:1"
       d="m 110.65243,187.38703 a 9.3549174,8.8658901 0 0 0 -9.35474,8.86567 9.3549174,8.8658901 0 0 0 0.0108,0.29542 13.918858,13.298701 76.642127 0 0 9.00951,4.42307 13.918858,13.298701 76.642127 0 0 9.58226,-3.45411 9.3549174,8.8658901 0 0 0 0.10731,-1.26438 9.3549174,8.8658901 0 0 0 -9.35516,-8.86567 z"
       id="path5292"
       inkscape:connector-curvature="0" />
    <path
       style="fill:none;stroke:#000000;stroke-width:2;stroke-linecap:butt;stroke-linejoin:miter;stroke-miterlimit:4;stroke-dasharray:none;stroke-opacity:1"
       d="M 109.97927,150.51994 C 94.316864,118.04255 94.316864,118.04255 94.316864,118.04255"
       id="path4619-5"
       inkscape:connector-curvature="0" />
    <path
       style="fill:#000000;fill-opacity:1;stroke:none;stroke-width:2.29535866;stroke-miterlimit:4;stroke-dasharray:none;stroke-opacity:1"
       d="m 144.00898,186.96936 a 9.3549176,8.8658901 0 0 0 -9.35477,8.86567 9.3549176,8.8658901 0 0 0 0.0108,0.29542 13.918858,13.298701 76.642127 0 0 9.00954,4.42307 13.918858,13.298701 76.642127 0 0 9.58226,-3.45411 9.3549176,8.8658901 0 0 0 0.10731,-1.26438 9.3549176,8.8658901 0 0 0 -9.35516,-8.86567 z"
       id="path5292-0"
       inkscape:connector-curvature="0" />
    <ellipse
       style="fill:#ffffff;fill-opacity:1;stroke:#000000;stroke-width:1.5;stroke-miterlimit:4;stroke-dasharray:none;stroke-opacity:1"
       id="path4536"
       cx="127.75595"
       cy="210.82143"
       rx="21.937265"
       ry="30.252743" />
  </g>
</svg>
