<svg id="draw.id" overflow="visible" v:layers="{&quot;default&quot;:{&quot;name&quot;:&quot;Default&quot;,&quot;print&quot;:0,&quot;display&quot;:1,&quot;publish&quot;:0},&quot;jwuktd3clp&quot;:{&quot;name&quot;:&quot;cc&quot;,&quot;print&quot;:0,&quot;display&quot;:1,&quot;publish&quot;:0},&quot;jxk6ceb1sb&quot;:{&quot;name&quot;:&quot;Untitled layer&quot;,&quot;print&quot;:1,&quot;display&quot;:1,&quot;publish&quot;:1}}" v:ver="2" x="500.5" xmlns="http://www.w3.org/2000/svg" xmlns:v="http://vecta.io" xmlns:xlink="http://www.w3.org/1999/xlink" y="500.5"><style xmlns="http://www.w3.org/1999/xhtml"><![CDATA[#draw\.id{stroke:#000;stroke-linecap:round;stroke-linejoin:round;fill:#fff;fill-rule:evenodd;font-family:Roboto;font-size:14px;text-anchor:middle}#draw\.id text{stroke:none}]]></style><defs><style type="text/css">@import url("https://fonts.googleapis.com/css?family=Roboto+Condensed:400,400i,700,700i"); @import url("https://fonts.googleapis.com/css?family=Roboto:400,400i,700,700i"); @import url("https://fonts.googleapis.com/css?family=Cousine:400,400i,700,700i"); @import url("https://fonts.googleapis.com/css?family=Anonymous+Pro:400,400i,700,700i"); @import url("https://fonts.googleapis.com/css?family=Lato:400,400i,700,700i"); @import url("https://fonts.googleapis.com/css?family=Open+Sans:400,400i,700,700i"); @import url("https://fonts.googleapis.com/css?family=Barlow+Condensed" rel"); @import url("https://fonts.googleapis.com/css?family=Alfa+Slab+One"); @import url("https://fonts.googleapis.com/css?family=Montserrat:400,400i,700,700i"); @import url("https://fonts.googleapis.com/css?family=Barriecito");</style></defs><title xmlns="http://www.w3.org/1999/xhtml">Untitled drawing</title><desc xmlns="http://www.w3.org/1999/xhtml"></desc><svg height="67" id="jnpok80i2" overflow="visible" rs_id="1120" style="fill: rgb(115, 132, 140) !important; stroke: rgb(0, 0, 0) !important;" v:setup="{&quot;paper&quot;:&quot;CUSTOM&quot;,&quot;unit&quot;:&quot;px&quot;,&quot;scale&quot;:{&quot;from&quot;:&quot;1&quot;,&quot;to&quot;:&quot;1&quot;},&quot;width&quot;:805,&quot;height&quot;:670,&quot;orient&quot;:0}" viewBox="0 0 805 670" width="80.5"><g id="jyfyzcg9ik" class="Group.cls NoPrint.cls" transform="translate(0 0)" v:abox="{&quot;x&quot;:0,&quot;y&quot;:0,&quot;width&quot;:804.6748657226562,&quot;height&quot;:669.7048149108887}"><g class="Prim.cls"><g id="jyfyzcdbg5" transform="translate(450.4304504394531 472.9762992858887)" class="NoPrint.cls"><path d="M 0 50.7142944335938 C 0 22.6185913085938 23.5743103027344 0 52.8571472167969 0 C 82.1399841308594 0 105.7143249511719 22.6185913085938 105.7143249511719 50.7142944335938 C 105.7143249511719 78.8099975585938 82.1399841308594 101.4285278320313 52.8571472167969 101.4285278320313 C 23.5743103027344 101.4285278320313 0 78.8099975585938 0 50.7142944335938 Z" stroke-linejoin="miter" stroke-linecap="butt" fill-rule="nonzero" stroke-width="7.559067435131247" fill="#ffffff" fill-opacity="1"/></g><g id="jyfyzcddg6" transform="translate(114.14288330078125 472.9762992858887)" class="NoPrint.cls"><path d="M 0 50.7142944335938 C 0 22.6185913085938 23.5742797851563 0 52.8571319580078 0 C 82.1400299072266 0 105.7142944335938 22.6185913085938 105.7142944335938 50.7142944335938 C 105.7142944335938 78.8099975585938 82.1400299072266 101.4285278320313 52.8571319580078 101.4285278320313 C 23.5742797851563 101.4285278320313 0 78.8099975585938 0 50.7142944335938 Z" stroke-linejoin="miter" stroke-linecap="butt" fill-rule="nonzero" stroke-width="7.559067435131247" fill="#ffffff" fill-opacity="1"/></g><g id="jyfyzcddg7" transform="translate(128.51234436035156 491.7602348327637)" class="NoPrint.cls"><path d="M 0 33.7935791015625 C 0 15.0719604492188 15.7087707519531 0 35.2214813232422 0 C 54.7342224121094 0 70.4429931640625 15.0719604492188 70.4429931640625 33.7935791015625 C 70.4429931640625 52.5151977539063 54.7342224121094 67.587158203125 35.2214813232422 67.587158203125 C 15.7087707519531 67.587158203125 0 52.5151977539063 0 33.7935791015625 Z" stroke-linejoin="miter" stroke-linecap="butt" fill-rule="nonzero" stroke-width="3.7795337175656236" fill="#ffffff" fill-opacity="1"/></g><g id="jyfyzcdeg8" transform="translate(468.6524658203125 491.5753593444824)" class="NoPrint.cls"><path d="M 0 33.7935791015625 C 0 15.0719604492188 15.7088012695313 0 35.2214965820313 0 C 54.7341918945313 0 70.4429321289063 15.0719604492188 70.4429321289063 33.7935791015625 C 70.4429321289063 52.5151977539063 54.7341918945313 67.587158203125 35.2214965820313 67.587158203125 C 15.7088012695313 67.587158203125 0 52.5151977539063 0 33.7935791015625 Z" stroke-linejoin="miter" stroke-linecap="butt" fill-rule="nonzero" stroke-width="3.7795337175656236" fill="#ffffff" fill-opacity="1"/></g><g id="jyfyzcdeg9" transform="translate(162.87143308380936 352.906169891147)" class="NoPrint.cls"><path d="M 323.2984887911906 281.5036621095855 C 350.2410547091594 281.5036621095855 342.5707666232219 212.6932373048979 342.6422387911906 185.3599853517729 C 342.6419946505656 82.9883422853667 266.3194848849406 -0.0001525876802 172.1710473849406 2.104e-10 C 78.0231286837688 -0.0000915525239 1.7006646945109 82.9883422853667 1.7004510714641 185.3599853517729 C 1.7624627902141 212.6906738283354 -8.0698278592 283.646606445523 18.8710748507609 283.646606445523" stroke-linejoin="miter" stroke-linecap="butt" fill-rule="nonzero" stroke-width="7.559067435131247" fill="#ffffff" fill-opacity="1"/></g><g id="jyfyzcdfga" transform="translate(206.2686739052137 446.4870017715277)" class="NoPrint.cls"><path d="M 124.8892545615832 79.2317901901423 C 121.8277006065051 119.0395294479548 91.5685453330676 147.9534698776423 57.0437040244738 144.0612579635798 C 22.5188016807238 140.1690460495173 -2.8108797157606 104.9882599167048 0.2507047568957 65.1805206588923 C 3.3122587119738 25.3727814010798 33.5713529502551 -3.5411590286078 68.0962552940051 0.3510528854547 C 102.6211576377551 4.2432647995172 127.9508390342394 39.4240509323298 124.8892545615832 79.2317901901423 Z" stroke-linejoin="miter" stroke-linecap="butt" fill-rule="nonzero" stroke-width="5.768875881374779" fill="#ffffff" fill-opacity="1"/></g><g id="jyfyzcdfgb" transform="translate(334.9768858092731 447.9068802569357)" class="NoPrint.cls"><path d="M 0.7588929993207 82.786215903953 C 6.0861940247113 122.3545142437967 37.9453859192425 149.4952613141092 72.1919984680707 143.6400367047342 C 106.438672052055 137.7848120953592 129.7202577454144 101.2164527203592 124.3930177551801 61.6481543805155 C 119.0657167297894 22.0798560406717 87.2065553528363 -5.0609825823752 52.9598817688519 0.794272544578 C 18.7132387024457 6.6495276715311 -4.56840802607 43.217856528953 0.7588929993207 82.786215903953 Z" stroke-linejoin="miter" stroke-linecap="butt" fill-rule="nonzero" stroke-width="5.573851742429144" fill="#ffffff" fill-opacity="1"/></g><g id="jyfyzcdggc" transform="translate(118.65956115722656 422.8710746765137)" class="NoPrint.cls"><path d="M 71.5380859375 48.7910766601563 C 0 0 0 0 1e-13 1e-13" stroke-linejoin="miter" stroke-linecap="butt" fill="none" fill-rule="nonzero" stroke-width="7.559067435131247" fill-opacity="1"/></g><g id="jyfyzcdhgd" transform="translate(143.00003051757812 344.4094657897949)" class="NoPrint.cls"><path d="M 98.5713806152344 85.7142639160156 C 0 0 0 0 1e-13 1e-13" stroke-linejoin="miter" stroke-linecap="butt" fill="none" fill-rule="nonzero" stroke-width="7.559067435131247" fill-opacity="1"/></g><g id="jyfyzcdhge" transform="translate(288.7139892578125 292.9808769226074)" class="NoPrint.cls"><path d="M 22.8569946289063 84.2857055664063 C 0 0 0 0 1e-13 1e-13" stroke-linejoin="miter" stroke-linecap="butt" fill="none" fill-rule="nonzero" stroke-width="3.7795337175656236" fill-opacity="1"/></g><g id="jyfyzcdhgf" transform="translate(392.28515625 277.2666130065918)" class="NoPrint.cls"><path d="M 0 112.857177734375 C 34.2857360839844 0 34.2857360839844 0 34.2857360839844 0" stroke-linejoin="miter" stroke-linecap="butt" fill="none" fill-rule="nonzero" stroke-width="5.669300576348435" fill-opacity="1"/></g><g id="jyfyzcdigg" transform="translate(434.4280090332031 348.69514083862305)" class="NoPrint.cls"><path d="M 0 70 C 57.1429138183594 0 57.1429138183594 0 57.1429138183594 0" stroke-linejoin="miter" stroke-linecap="butt" fill="none" fill-rule="nonzero" stroke-width="3.7795337175656236" fill-opacity="1"/></g><g id="jyfyzcdigh" transform="translate(474.42803955078125 398.69514083862305)" class="NoPrint.cls"><path d="M 0 52.8571166992188 C 84.2857666015625 0 84.2857666015625 0 84.2857666015625 0" stroke-linejoin="miter" stroke-linecap="butt" fill="none" fill-rule="nonzero" stroke-width="7.559067435131247" fill-opacity="1"/></g><g id="jyfyzcdjgi" transform="translate(415.489501953125 312.3032341003418)" class="NoPrint.cls"><path d="M 0 82.0695190429688 C 35.7341918945313 0 35.7341918945313 0 35.7341918945313 0" stroke-linejoin="miter" stroke-linecap="butt" fill="none" fill-rule="nonzero" stroke-width="7.559067435131247" fill-opacity="1"/></g><g id="jyfyzcdjgj" transform="translate(358.1429443359375 145.5507469177246)" class="NoPrint.cls"><path d="M 1e-13 1e-13 L 1e-13 1e-13 L 1e-13 1e-13" stroke-linejoin="miter" stroke-linecap="butt" fill="none" fill-rule="nonzero" stroke-width="1.0000003695946655" fill-opacity="1"/></g><g id="jyfyzcdkgk" transform="translate(190.1428680419922 341.55231857299805)" class="NoPrint.cls"><path d="M 52.8570709228516 68.5714111328125 C 0 0 0 0 1e-13 1e-13" stroke-linejoin="miter" stroke-linecap="butt" fill="none" fill-rule="nonzero" stroke-width="3.7795337175656236" fill-opacity="1"/></g><g id="jyfyzcdkgl" transform="translate(247.28567504882812 307.2666130065918)" class="NoPrint.cls"><path d="M 38.5711975097656 72.8571166992188 C 0 0 0 0 1e-13 1e-13" stroke-linejoin="miter" stroke-linecap="butt" fill="none" fill-rule="nonzero" stroke-width="5.669300576348435" fill-opacity="1"/></g><g id="jyfyzcdlgm" transform="translate(346.46612548828125 309.9594535827637)" class="NoPrint.cls"><path d="M 0 65.3285522460938 C 5.3523559570313 0 5.3523559570313 0 5.3523559570313 0" stroke-linejoin="miter" stroke-linecap="butt" fill="none" fill-rule="nonzero" stroke-width="4.573840523649214" fill-opacity="1"/></g><g id="jyfyzcdmgn" transform="translate(460.1423645019531 390.1237907409668)" class="NoPrint.cls"><path d="M 0 47.1427917480469 C 31.4285583496094 0 31.4285583496094 0 31.4285583496094 0" stroke-linejoin="miter" stroke-linecap="butt" fill="none" fill-rule="nonzero" stroke-width="7.559067435131247" fill-opacity="1"/></g><g id="jyfyzcdngo" transform="translate(310.515380859375 249.48127365112305)" class="NoPrint.cls"><path d="M 10.6826477050781 121.2848510742188 C 0 0 0 0 1e-13 1e-13" stroke-linejoin="miter" stroke-linecap="butt" fill="none" fill-rule="nonzero" stroke-width="7.559067435131247" fill-opacity="1"/></g><g id="jyfyzcdogp" transform="translate(363.1075439453125 259.3749198913574)" class="NoPrint.cls"><path d="M 0 117.9261779785156 C 16.9266967773438 0 16.9266967773438 0 16.9266967773438 0" stroke-linejoin="miter" stroke-linecap="butt" fill="none" fill-rule="nonzero" stroke-width="5.118320151001718" fill-opacity="1"/></g><g id="jyfyzcdogq" transform="translate(161.57147216796875 430.12372970581055)" class="NoPrint.cls"><path d="M 32.8571319580078 15.7142639160156 C 0 0 0 0 1e-13 1e-13" stroke-linejoin="miter" stroke-linecap="butt" fill="none" fill-rule="nonzero" stroke-width="3.7795337175656236" fill-opacity="1"/></g><g id="jyfyzcdpgr" transform="translate(140.1428985595703 378.69514083862305)" class="NoPrint.cls"><path d="M 77.1428680419922 55.7143249511719 C 0 0 0 0 1e-13 1e-13" stroke-linejoin="miter" stroke-linecap="butt" fill="none" fill-rule="nonzero" stroke-width="5.291347204591873" fill-opacity="1"/></g><g id="jyfyzcdqgs" transform="translate(180.14292907714844 635.1236991882324)" class="NoPrint.cls"><path d="M 1e-13 1e-13 C 307.8565216064453 2.1429443359375 307.8565216064453 2.1429443359375 307.8565216064453 2.1429443359375" stroke="#cccccc" stroke-linejoin="miter" stroke-linecap="butt" fill="none" fill-rule="nonzero" stroke-width="11.33860115269687" fill-opacity="1"/></g><g id="jyfyzcdqgt" transform="translate(551.7153930664062 586.1334037780762)" class="NoPrint.cls"><path d="M 0 41.4285888671875 C 0 18.4771118164063 12.7428588867188 0 28.5714111328125 0 C 44.4000244140625 0 57.142822265625 18.4771118164063 57.142822265625 41.4285888671875 C 57.142822265625 64.3800048828125 44.4000244140625 82.8571166992188 28.5714111328125 82.8571166992188 C 12.7428588867188 82.8571166992188 0 64.3800048828125 0 41.4285888671875 Z" stroke-linejoin="miter" stroke-linecap="butt" fill-rule="nonzero" stroke-width="7.559067435131247" fill="#ffffff" fill-opacity="1"/></g><g id="jyfyzcdrgu" transform="translate(612.1439819335938 586.1334037780762)" class="NoPrint.cls"><path d="M 0 41.4285888671875 C 0 18.4771118164063 12.742919921875 0 28.5714721679688 0 C 44.4000244140625 0 57.1429443359375 18.4771118164063 57.1429443359375 41.4285888671875 C 57.1429443359375 64.3800048828125 44.4000244140625 82.8571166992188 28.5714721679688 82.8571166992188 C 12.742919921875 82.8571166992188 0 64.3800048828125 0 41.4285888671875 Z" stroke-linejoin="miter" stroke-linecap="butt" fill-rule="nonzero" stroke-width="7.559067435131247" fill="#ffffff" fill-opacity="1"/></g><g id="jyfyzcdsgv" transform="translate(491.2867431640625 586.1334037780762)" class="NoPrint.cls"><path d="M 0 41.4285888671875 C 0 18.4771118164063 12.7428588867188 0 28.5714111328125 0 C 44.4000244140625 0 57.1428833007813 18.4771118164063 57.1428833007813 41.4285888671875 C 57.1428833007813 64.3800048828125 44.4000244140625 82.8571166992188 28.5714111328125 82.8571166992188 C 12.7428588867188 82.8571166992188 0 64.3800048828125 0 41.4285888671875 Z" stroke-linejoin="miter" stroke-linecap="butt" fill-rule="nonzero" stroke-width="7.559067435131247" fill="#ffffff" fill-opacity="1"/></g><g id="jyfyzcdtgw" transform="translate(60.428565979003906 586.8476982116699)" class="NoPrint.cls"><path d="M 0 41.4285888671875 C 0 18.4771728515625 12.7428741455078 0 28.5714492797852 0 C 44.4000015258789 0 57.1428756713867 18.4771728515625 57.1428756713867 41.4285888671875 C 57.1428756713867 64.3800048828125 44.4000015258789 82.8571166992188 28.5714492797852 82.8571166992188 C 12.7428741455078 82.8571166992188 0 64.3800048828125 0 41.4285888671875 Z" stroke-linejoin="miter" stroke-linecap="butt" fill-rule="nonzero" stroke-width="7.559067435131247" fill="#ffffff" fill-opacity="1"/></g><g id="jyfyzcdugx" transform="translate(120.85713195800781 586.8476982116699)" class="NoPrint.cls"><path d="M 0 41.4285888671875 C 0 18.4771728515625 12.7428436279297 0 28.5714263916016 0 C 44.3999786376953 0 57.1428527832031 18.4771728515625 57.1428527832031 41.4285888671875 C 57.1428527832031 64.3800048828125 44.3999786376953 82.8571166992188 28.5714263916016 82.8571166992188 C 12.7428436279297 82.8571166992188 0 64.3800048828125 0 41.4285888671875 Z" stroke-linejoin="miter" stroke-linecap="butt" fill-rule="nonzero" stroke-width="7.559067435131247" fill="#ffffff" fill-opacity="1"/></g><g id="jyfyzcdvgy" transform="translate(0 586.8476982116699)" class="NoPrint.cls"><path d="M 0 41.4285888671875 C 0 18.4771728515625 12.7428436279297 0 28.571418762207 0 C 44.4000015258789 0 57.1428451538086 18.4771728515625 57.1428451538086 41.4285888671875 C 57.1428451538086 64.3800048828125 44.4000015258789 82.8571166992188 28.571418762207 82.8571166992188 C 12.7428436279297 82.8571166992188 0 64.3800048828125 0 41.4285888671875 Z" stroke-linejoin="miter" stroke-linecap="butt" fill-rule="nonzero" stroke-width="7.559067435131247" fill="#ffffff" fill-opacity="1"/></g><g id="jyfyzcdwgz" transform="translate(234.42886352539062 541.5528373627005)" class="NoPrint.cls"><path d="M 35.3562927246094 9.1256e-9 C 15.8297729492188 0.0004272552194 0.0005187988281 15.0021362395944 0 33.5079956145944 C 0.007080078125 33.8803711028756 0.0206604003906 34.2526245208444 0.0408325195313 34.6244506927194 C 9.0049743652344 44.4917602630319 21.1937561035156 50.4757080169381 34.0923156738281 51.3416748138131 C 47.4478149414063 52.2018432708444 60.4755249023438 47.5056152435006 70.3085327148438 38.2867431731881 C 70.56396484375 36.7050170989694 70.699462890625 35.1080322356881 70.714111328125 33.5079956145944 C 70.7135925292969 15.0015258880319 54.8833618164063 -0.0004272369681 35.3562316894531 9.1256e-9 Z" stroke="none" stroke-linejoin="miter" stroke-linecap="butt" fill="#000000" fill-rule="nonzero" stroke-width="8.67539051395143" fill-opacity="1"/></g><g id="jyfyzcdwh0" transform="translate(208.04464721679688 279.4634208679199)" class="NoPrint.cls"><path d="M 59.1963195800781 122.7491760253906 C 0 0 0 0 1e-13 1e-13" stroke-linejoin="miter" stroke-linecap="butt" fill="none" fill-rule="nonzero" stroke-width="7.559067435131247" fill-opacity="1"/></g><g id="jyfyzcdxh1" transform="translate(360.50018310546875 539.9741630427579)" class="NoPrint.cls"><path d="M 35.3566589355469 1.2662e-8 C 15.8299865722656 0.0003051884432 0.0005187988281 15.0021362431307 0 33.508056653287 C 0.007080078125 33.880371106412 0.0206909179688 34.252685559537 0.0408325195313 34.6245727665682 C 9.0050659179688 44.4918823368807 21.1939392089844 50.475830090787 34.0926513671875 51.3416748173495 C 47.4482116699219 52.201904309537 60.4760131835938 47.505859387662 70.3090515136719 38.2868042118807 C 70.5644836425781 36.705078137662 70.7000122070313 35.1080932743807 70.7146606445313 33.508056653287 C 70.7144165039063 24.6209716923495 66.9890747070313 16.097900403287 60.3581848144531 9.8139038212557 C 53.7272033691406 3.530029309537 44.73388671875 -0.000244127963 35.3565368652344 1.2662e-8 Z" stroke="none" stroke-linejoin="miter" stroke-linecap="butt" fill="#000000" fill-rule="nonzero" stroke-width="8.67539051395143" fill-opacity="1"/></g><g id="jyfyzcdxh2" transform="translate(300.51788330078125 553.9109306335449)" class="NoPrint.cls"><path d="M 0 27.9015502929688 C 0 12.444091796875 13.8118591308594 0 30.96826171875 0 C 48.1246337890625 0 61.9365539550781 12.444091796875 61.9365539550781 27.9015502929688 C 61.9365539550781 43.3590087890625 48.1246337890625 55.8031005859375 30.96826171875 55.8031005859375 C 13.8118591308594 55.8031005859375 0 43.3590087890625 0 27.9015502929688 Z" stroke-linejoin="miter" stroke-linecap="butt" fill-rule="nonzero" stroke-width="5.669300576348435" fill="#ffffff" fill-opacity="1"/></g><g id="jyfyzcdyh3" transform="translate(490.18243408203125 0)" class="NoPrint.cls"><path d="M 130.1038208007813 0 C 150.586181640625 0 168.3555908203125 11.3010330200195 178.2954711914063 27.990795135498 C 187.5174560546875 21.3224067687988 198.6963500976563 17.2904891967773 210.8386840820313 17.2905426025391 C 242.0882568359375 17.2905426025391 267.477783203125 43.2748222351074 267.477783203125 75.256404876709 C 267.477783203125 77.606502532959 267.0514526367188 79.8529014587402 266.7854614257813 82.1300926208496 C 293.7733764648438 86.5370903015137 314.492431640625 110.2488670349121 314.492431640625 139.1038017272949 C 314.492431640625 167.6943778991699 294.1715087890625 191.3572807312012 267.5470581054688 196.0775871276856 C 268.0864868164063 199.2877311706543 268.5164794921875 202.5605583190918 268.5164794921875 205.9275169372559 C 268.5164794921875 237.9090690612793 243.1268920898438 263.8224601745606 211.8773803710938 263.8224601745606 C 196.5712280273438 263.8224601745606 182.7412719726563 257.5652275085449 172.5484619140625 247.4531059265137 C 162.1611328125 260.0984916687012 146.8045654296875 268.3576469421387 129.411376953125 268.3576469421387 C 104.5950927734375 268.3576469421387 83.7330322265625 251.8562431335449 76.0957641601563 229.0996513366699 C 69.98291015625 231.4130668640137 63.46533203125 232.9263114929199 56.56982421875 232.9263114929199 C 25.3203125 232.9263114929199 0 206.9419975280762 0 174.9604148864746 C 0 158.8782768249512 6.4061889648438 144.3605308532715 16.75634765625 133.8599510192871 C 11.531005859375 125.0865287780762 8.308837890625 114.904354095459 8.308837890625 103.8849296569824 C 8.308837890625 71.9033470153809 33.6983642578125 45.9900093078613 64.9480590820313 45.9900093078613 C 68.2376098632813 45.9900093078613 71.4360961914063 46.3588752746582 74.572509765625 46.9111824035645 C 79.6187133789063 20.2103996276855 102.5470581054688 0 130.1038208007813 0 Z" stroke="#333333" stroke-linecap="butt" fill-rule="nonzero" stroke-width="7.559067435131247" fill="#ffffff" fill-opacity="1"/></g><g id="jyfyzcdzh4" transform="translate(544.6932373046875 314.3911552429199)" class="NoPrint.cls"><path d="M 49.1784057617188 21.1526489257813 C 49.1784057617188 9.43408203125 38.2116088867188 0 24.5891723632813 0 C 10.966796875 0 0 9.43408203125 0 21.1526489257813 C 0 32.8712463378906 10.966796875 42.3052978515625 24.5891723632813 42.3052978515625 C 38.2116088867188 42.3052978515625 49.1784057617188 32.8712463378906 49.1784057617188 21.1526489257813 Z" stroke="#747474" stroke-linecap="butt" fill-rule="nonzero" stroke-width="6.61418400573984" fill="#ffffff" fill-opacity="1"/></g><g id="jyfyzce0h5" transform="translate(497.4246826171875 342.0571098327637)" class="NoPrint.cls"><path d="M 34.97119140625 14.6777038574219 C 34.97119140625 6.5462341308594 27.172607421875 0 17.485595703125 0 C 7.798583984375 0 0 6.5462341308594 0 14.6777038574219 C 0 22.8091125488281 7.798583984375 29.3553161621094 17.485595703125 29.3553161621094 C 27.172607421875 29.3553161621094 34.97119140625 22.8091125488281 34.97119140625 14.6777038574219 Z" stroke="#747474" stroke-linecap="butt" fill-rule="nonzero" stroke-width="5.669300576348435" fill="#ffffff" fill-opacity="1"/></g><g id="jyfyzce2h6" transform="translate(524.782958984375 86.32565689086914)" class="NoPrint.cls"><rect x="0" y="0" width="238" height="96.00000073242187" stroke="none" stroke-linejoin="miter" stroke-linecap="butt" fill="none" fill-rule="nonzero" stroke-width="1.0000003695946655" fill-opacity="1"/><g transform="translate(0 0)" class="Text.cls"><rect x="0" y="0" width="238" height="96" fill="none" stroke="none"/><text fill="#4d4d4d" fill-opacity="1" font-size="96.00000073242187" font-weight="bold" font-family="Roboto Condensed"><tspan x="119" y="79.68000024169922">uh oh</tspan></text></g></g><g id="jyfyzcephg" transform="translate(608.7459106445312 286.8421745300293)" class="NoPrint.cls"><path d="M 58.3638916015625 23.6025695800781 C 58.3638916015625 10.5267639160156 45.3487548828125 0 29.1819458007813 0 C 13.01513671875 0 0 10.5267639160156 0 23.6025695800781 C 0 36.6783752441406 13.01513671875 47.2051086425781 29.1819458007813 47.2051086425781 C 45.3487548828125 47.2051086425781 58.3638916015625 36.6783752441406 58.3638916015625 23.6025695800781 Z" stroke="#747474" stroke-linecap="butt" fill-rule="nonzero" stroke-width="7.559067435131247" fill="#ffffff" fill-opacity="1"/></g></g></g></svg></svg>